HIERARCHY
ROOT Hips
{
  OFFSET 135.094 103.702 327.381
  CHANNELS 6 Xposition Yposition Zposition Zrotation Xrotation Yrotation
  JOINT RightUpLeg
  {
    OFFSET -8.9458 -8.66707 0.101652
    CHANNELS 3 Zrotation Xrotation Yrotation
    JOINT RightLeg
    {
      OFFSET 0 -44.4227 1.3727
      CHANNELS 3 Zrotation Xrotation Yrotation
      JOINT RightFoot
      {
        OFFSET 0.253549 -42.0924 -1.46059
        CHANNELS 3 Zrotation Xrotation Yrotation
        JOINT RightToes
        {
          OFFSET 0.04 -4.41509 8.4991
          CHANNELS 3 Zrotation Xrotation Yrotation
          End Site
          {
            OFFSET -0.08 -0.137448 9.77979
          }
        }
      }
    }
  }
  JOINT Spine
  {
    OFFSET 0 11.8905 0
    CHANNELS 3 Zrotation Xrotation Yrotation
    JOINT Spine1
    {
      OFFSET 0 25.6574 0.127663
      CHANNELS 3 Zrotation Xrotation Yrotation
      JOINT HEad
      {
        OFFSET 0 8.73416 0.011341
        CHANNELS 3 Zrotation Xrotation Yrotation
        End Site
        {
          OFFSET -0.29 12.7742 2.51395
        }
      }
      JOINT LeftShoulder1
      {
        OFFSET 8.99 -0.362252 -0.22
        CHANNELS 3 Zrotation Xrotation Yrotation
        JOINT LeftArm
        {
          OFFSET 10.2827 -0.00338 0.322123
          CHANNELS 3 Zrotation Xrotation Yrotation
          JOINT LeftForeArm
          {
            OFFSET 32.7669 0.099144 -1.42434
            CHANNELS 3 Zrotation Xrotation Yrotation
            JOINT LeftHand
            {
              OFFSET 27.5643 0.085362 1.02216
              CHANNELS 3 Zrotation Xrotation Yrotation
              End Site
              {
                OFFSET 16.7443 -0.6 1.50291
              }
            }
          }
        }
      }
      JOINT RightShoulder
      {
        OFFSET -8.99 -0.362252 -0.22
        CHANNELS 3 Zrotation Xrotation Yrotation
        JOINT RightArm
        {
          OFFSET -10.2827 -0.00338 0.322123
          CHANNELS 3 Zrotation Xrotation Yrotation
          JOINT RightForeArm
          {
            OFFSET -32.8971 0.099144 -1.42434
            CHANNELS 3 Zrotation Xrotation Yrotation
            JOINT RightHand
            {
              OFFSET -27.4921 0.085362 1.02216
              CHANNELS 3 Zrotation Xrotation Yrotation
              End Site
              {
                OFFSET -16.6312 -0.6 1.50291
              }
            }
          }
        }
      }
    }
  }
  JOINT LeftUpLeg
  {
    OFFSET 8.9458 -8.66707 0.101652
    CHANNELS 3 Zrotation Xrotation Yrotation
    JOINT LeftLeg
    {
      OFFSET 0 -44.4227 1.3727
      CHANNELS 3 Zrotation Xrotation Yrotation
      JOINT LeftFoot
      {
        OFFSET -0.253549 -42.0924 -1.46059
        CHANNELS 3 Zrotation Xrotation Yrotation
        JOINT LeftToes
        {
          OFFSET -0.04 -4.41509 8.4991
          CHANNELS 3 Zrotation Xrotation Yrotation
          End Site
          {
            OFFSET 0.08 -0.047448 9.77979
          }
        }
      }
    }
  }
}
MOTION
Frames:	22
Frame Time:	0.0166667
-22.583	56.053	35.179	20.0111	54.0795	154.851	-62.4283	-14.3745	-33.5569	156.201	68.8832	-131.972	6.54463	-3.5637	-7.01441	0.0462048	0.000533964	0.662642	-0.35958	0.551789	0.118739	-0.725295	1.1056	0.240763	9.15316	36.6804	51.6414	-1.59E-15	-9.54E-15	-3.18E-15	-71.4315	28.8233	25.8543	-16.9595	17.9984	-60.1923	24.2034	6.32234	-2.27331	-1.59E-15	-9.54E-15	-3.18E-15	83.4349	29.5712	-43.1026	-7.66524	-0.53645	61.0754	-19.1288	9.827	-12.1715	1.03707	-33.7479	8.08092	172.655	70.8546	158.665	-17.7634	-13.3371	-21.6814	1.27E-14	2.70E-14	-6.36E-15
-22.559	56.1091	35.301	20.0223	54.0846	154.793	-61.891	-14.8098	-33.1667	156.18	68.971	-132.163	6.56163	-3.5067	-7.25335	0.0462048	0.000533964	0.662642	-0.361378	0.55802	0.13881	-0.725714	1.11793	0.280949	9.16851	36.7247	51.6546	-8.83E-32	-3.18E-15	-1.59E-15	-71.6715	29.0266	25.859	-16.7763	17.7477	-60.2533	23.9962	6.21316	-2.23092	-8.83E-32	-3.18E-15	-1.59E-15	83.5586	29.7227	-43.098	-7.72562	-0.6285	61.0367	-19.1562	9.68931	-12.0155	0.470332	-33.6888	7.73072	172.453	70.9869	158.984	-17.5596	-13.214	-21.4181	9.54E-15	3.18E-14	6.36E-15
-22.536	56.1603	35.421	20.0115	54.0728	154.776	-61.3783	-15.2324	-32.7884	156.149	69.0513	-132.335	6.55357	-3.43261	-7.4518	0.0462048	0.000533964	0.662642	-0.362992	0.56402	0.159161	-0.72747	1.12981	0.321667	9.20766	36.7465	51.6495	3.18E-15	-3.18E-15	1.59E-15	-71.7929	29.1932	25.8136	-16.5963	17.6646	-60.3338	23.8071	6.08717	-2.18026	3.18E-15	-3.18E-15	1.59E-15	83.5903	29.7903	-43.0765	-7.75489	-0.643003	61.0538	-19.1818	9.54443	-11.8342	-0.107393	-33.6576	7.36044	172.177	71.1203	159.395	-17.416	-13.1013	-21.2335	9.54E-15	3.18E-14	9.54E-15
-22.524	56.2065	35.524	19.9485	54.0718	154.839	-60.9216	-15.6008	-32.4258	156.106	69.1248	-132.483	6.5505	-3.37599	-7.64414	0.0462048	0.000533964	0.662642	-0.363784	0.570582	0.173219	-0.729206	1.14283	0.349862	9.28745	36.7769	51.5953	-3.18E-15	3.18E-15	0.00E+00	-71.8295	29.3336	25.735	-16.4405	17.6967	-60.4184	23.6363	5.94724	-2.1277	-3.18E-15	3.18E-15	0.00E+00	83.5865	29.8086	-43.0784	-7.76539	-0.633638	61.1098	-19.2013	9.3829	-11.6475	-0.749232	-33.636	6.94159	171.898	71.2586	159.795	-17.3085	-13.0427	-21.0166	1.59E-14	3.34E-14	6.36E-15
-22.516	56.2495	35.616	19.8993	54.0881	154.911	-60.4711	-15.9227	-32.0328	156.038	69.196	-132.624	6.57071	-3.36722	-7.85753	0.0462048	0.000533964	0.662642	-0.363198	0.580302	0.182507	-7.28E-01	1.16221	0.368502	9.40487	36.8443	51.4877	0.00E+00	-3.18E-15	0.00E+00	-71.7933	29.4306	25.6399	-16.3208	17.8209	-60.4888	23.4587	5.78807	-2.08226	0.00E+00	-3.18E-15	0.00E+00	83.6073	29.8387	-43.099	-7.75867	-0.6559	61.1557	-19.2012	9.21029	-11.4531	-1.38299	-33.5928	6.49831	171.62	71.396	160.167	-17.2273	-13.0313	-20.7915	1.27E-14	3.18E-14	0.00E+00
-22.512	56.2898	35.707	19.8688	54.1016	154.963	-59.9846	-16.2695	-31.5896	155.884	69.2623	-132.688	6.6085	-3.35119	-8.10784	0.0462048	0.000533964	0.662642	-0.359732	0.588758	0.191233	-0.721495	1.17908	0.385973	9.54074	36.9421	51.3564	-1.59E-15	-6.36E-15	-1.59E-15	-71.6807	29.4763	25.5444	-16.2482	18.0164	-60.5589	23.2718	5.63518	-2.05543	-1.59E-15	-6.36E-15	-1.59E-15	83.6809	29.9134	-43.114	-7.76139	-0.718877	61.1577	-19.1785	8.97952	-11.2643	-1.97451	-33.534	6.04223	171.425	71.5445	160.453	-17.1665	-13.0646	-20.5561	1.91E-14	2.70E-14	6.36E-15
-22.51	56.3192	35.806	19.8629	54.0826	154.972	-59.4727	-16.6753	-31.1939	155.811	69.3248	-132.774	6.60555	-3.29143	-8.37897	0.0462048	0.000533964	0.662642	-0.350775	0.591693	0.202353	-0.703706	1.18491	0.40814	9.67989	37.0481	51.227	0.00E+00	0.00E+00	0.00E+00	-71.5075	29.4792	25.443	-16.2152	18.2469	-60.6332	23.0711	5.49781	-2.03422	0.00E+00	0.00E+00	0.00E+00	83.8031	30.0105	-43.1064	-7.78824	-0.815518	61.1173	-19.2081	8.7124	-11.0438	-2.49633	-33.4985	5.60225	171.294	71.6848	160.666	-17.1098	-13.0642	-20.4276	1.59E-14	3.02E-14	6.36E-15
-22.515	56.3349	35.901	19.8511	54.0422	154.975	-58.9743	-17.109	-30.8286	155.781	69.3742	-132.896	6.60368	-3.23292	-8.64851	0.0462048	0.000533964	0.662642	-0.342539	0.593241	0.210944	-0.687317	1.18614	0.425242	9.81244	37.1415	51.1057	1.77E-31	3.18E-15	-3.18E-15	-71.3003	29.4384	25.3258	-16.1781	18.5319	-60.7126	22.8544	5.3988	-1.97389	1.77E-31	3.18E-15	-3.18E-15	83.9744	30.1204	-43.0788	-7.88374	-0.941224	61.0439	-19.2183	8.48616	-10.8833	-2.98345	-33.4936	5.19962	171.157	71.8085	160.882	-17.0483	-13.0479	-20.3263	1.91E-14	3.02E-14	0.00E+00
-22.521	56.3425	35.984	19.823	53.9903	154.991	-58.4932	-17.5345	-30.5218	155.869	69.4428	-133.188	6.6229	-3.21896	-8.91369	0.0462048	0.000533964	0.662642	-0.336278	0.595174	0.214831	-0.674852	1.19185	0.432968	9.93565	37.214	50.9825	1.59E-15	1.27E-14	0.00E+00	-71.0769	29.3535	25.1862	-16.135	18.8733	-60.7929	22.6361	5.28502	-1.88439	1.59E-15	1.27E-14	0.00E+00	84.1518	30.2269	-43.0119	-8.02757	-1.0798	60.9394	-19.2368	8.30022	-10.7117	-3.45875	-33.5049	4.8476	170.945	71.9216	161.184	-16.9852	-13.0524	-20.1723	1.59E-14	3.18E-14	6.36E-15
-22.528	56.346	36.06	19.7831	53.9434	155.022	-58.0447	-17.925	-30.2076	155.902	69.5069	-133.488	6.63443	-3.19539	-9.07752	0.0462048	0.000533964	0.662642	-0.331904	0.599649	0.213555	-0.666112	1.20083	0.430776	10.0507	37.2814	50.8428	1.59E-15	-3.18E-15	-1.59E-15	-70.8674	29.2585	25.0617	-16.1141	19.2032	-60.879	22.4423	5.1746	-1.81981	1.59E-15	-3.18E-15	-1.59E-15	84.3003	30.3113	-42.9336	-8.20654	-1.19533	60.8377	-19.2354	8.18176	-10.5652	-3.92862	-33.5228	4.52406	170.721	72.0205	161.503	-16.909	-13.0433	-19.9937	1.59E-14	2.70E-14	3.18E-15
-22.534	56.3482	36.128	19.7383	53.9071	155.063	-57.6294	-18.2861	-29.8223	155.766	69.5339	-133.626	6.63724	-3.15595	-9.15298	0.0462048	0.000533964	0.662642	-0.329773	0.604453	0.210029	-0.662638	1.21046	0.423355	10.1504	37.3465	50.6814	1.59E-15	0.00E+00	3.18E-15	-70.7134	29.1812	24.9708	-16.0891	19.4783	-60.9835	22.2859	5.0818	-1.75515	1.59E-15	0.00E+00	3.18E-15	84.404	30.3525	-42.8608	-8.39465	-1.269	60.7563	-19.2342	8.0676	-10.4135	-4.37671	-33.5385	4.21386	170.542	72.112	161.766	-16.8165	-13.0141	-19.8251	1.59E-14	3.98E-14	0.00E+00
-22.544	56.3542	36.187	19.6886	53.874	155.113	-57.2252	-18.6145	-29.4613	155.638	69.5755	-133.754	6.66878	-3.15855	-9.32878	0.0462048	0.000533964	0.662642	-0.328245	0.610495	0.204917	-0.661444	1.22258	0.413158	10.2505	37.4013	50.4982	-1.59E-15	-3.18E-15	0.00E+00	-70.6266	29.1549	24.9143	-16.0407	19.6516	-61.1068	22.1825	4.98333	-1.71499	-1.59E-15	-3.18E-15	0.00E+00	84.4915	30.3386	-42.8013	-8.53785	-1.34472	60.699	-19.2389	7.98017	-10.2909	-4.79141	-33.5422	3.9118	170.39	72.1983	161.981	-16.7119	-12.9243	-19.7766	1.27E-14	3.18E-14	9.54E-15
-22.551	56.3682	36.246	19.6619	53.8492	155.159	-56.8277	-18.8774	-29.167	155.614	69.6564	-133.932	6.67298	-3.14891	-9.47939	0.0462048	0.000533964	0.662642	-0.327217	0.620223	0.197001	-0.661029	1.24208	0.397371	10.3458	37.4482	50.3101	-1.59E-15	6.36E-15	0.00E+00	-70.6197	29.1799	24.892	-15.948	19.7287	-61.2414	22.1305	4.89758	-1.70541	-1.59E-15	6.36E-15	0.00E+00	84.593	30.2928	-42.7603	-8.61881	-1.45578	60.6526	-19.2458	7.90546	-10.2078	-5.17269	-33.5196	3.61257	170.241	72.2887	162.177	-16.6105	-12.8437	-19.7239	1.59E-14	3.02E-14	0.00E+00
-22.557	56.388	36.298	19.6356	53.8375	155.205	-56.4686	-19.098	-28.8756	155.551	69.7256	-134.022	6.65889	-3.12136	-9.59618	0.0462048	0.000533964	0.662642	-0.326605	0.630718	0.188941	-0.66121	1.26312	0.381302	10.4241	37.5016	50.135	1.59E-15	6.36E-15	-1.59E-15	-70.6887	29.2559	24.9044	-15.8017	19.732	-61.3818	22.121	4.81551	-1.72081	1.59E-15	6.36E-15	-1.59E-15	84.7086	30.2385	-42.7471	-8.6621	-1.59054	60.6275	-19.2442	7.8337	-10.1636	-5.52605	-33.481	3.35137	170.072	72.3745	162.382	-16.5058	-12.7905	-19.615	9.54E-15	3.34E-14	6.36E-15
-22.561	56.408	36.342	19.606	53.83	155.243	-56.1559	-19.3031	-28.5631	155.381	69.7541	-133.973	6.64303	-3.11386	-9.76616	0.0462048	0.000533964	0.662642	-0.326334	0.6403	0.18341	-0.661832	1.28232	0.370288	10.4794	37.5616	49.9831	1.59E-15	9.54E-15	3.18E-15	-70.8174	29.3829	24.934	-15.639	19.6532	-61.5049	22.13	4.73006	-1.74053	1.59E-15	9.54E-15	3.18E-15	84.8284	30.1984	-42.7669	-8.70032	-1.72916	60.6252	-19.2388	7.76643	-10.1391	-5.83552	-33.4355	3.15038	169.883	72.4542	162.598	-16.4013	-12.7933	-19.4056	1.59E-14	3.18E-14	9.54E-15
-22.559	56.4294	36.378	19.5754	53.814	155.276	-55.8913	-19.4799	-28.2756	155.172	69.7697	-133.868	6.60845	-3.08303	-9.85602	0.0462048	0.000533964	0.662642	-0.326307	0.64969	0.180211	-0.662652	1.30112	0.36394	10.5169	37.6146	49.8514	1.59E-15	-9.54E-15	0.00E+00	-70.9832	29.5413	24.9579	-15.4697	19.5127	-61.6003	22.1596	4.63796	-1.74791	1.59E-15	-9.54E-15	0.00E+00	84.9338	30.175	-42.8055	-8.727	-1.85513	60.6507	-19.2641	7.69239	-10.1088	-6.0842	-33.3957	2.99868	169.702	72.5227	162.8	-16.2881	-12.7203	-19.3828	1.59E-14	3.34E-14	3.18E-15
-22.559	56.452	36.402	19.5308	53.8003	155.312	-55.6848	-19.6245	-28.0285	154.983	69.7886	-133.788	6.5922	-3.05488	-9.89661	0.0462048	0.000533964	0.662642	-0.326432	0.661212	0.179352	-0.663429	1.32416	0.361165	10.5496	37.6554	49.7273	1.59E-15	3.18E-15	4.77E-15	-71.1754	29.7172	24.9708	-15.2853	19.3439	-61.6738	22.219	4.55111	-1.7457	1.59E-15	3.18E-15	4.77E-15	85.0254	30.1696	-42.8589	-8.71745	-1.97314	60.6999	-19.3544	7.5918	-10.0372	-6.28947	-33.3585	2.88008	169.569	72.5864	162.953	-16.1968	-12.7165	-19.2521	1.59E-14	3.66E-14	3.18E-15
-22.562	56.4743	36.417	19.4877	53.7956	155.333	-55.525	-19.7515	-27.7923	154.775	69.7958	-133.687	6.59486	-3.03874	-9.95522	0.0462048	0.000533964	0.662642	-0.326618	0.67682	0.180982	-0.664031	1.35536	0.365689	10.5664	37.6929	49.6212	0.00E+00	0.00E+00	1.59E-15	-71.3732	29.8922	24.9772	-15.1336	19.1416	-61.7246	22.2774	4.48638	-1.77584	0.00E+00	0.00E+00	1.59E-15	85.1096	30.1836	-42.9221	-8.68737	-2.086	60.7595	-19.4912	7.45208	-9.9426	-6.4387	-33.3182	2.783	169.524	72.651	163.032	-16.1317	-12.669	-19.2572	1.59E-14	3.50E-14	6.36E-15
-22.566	56.4936	36.429	19.4509	53.7843	155.345	-55.4011	-19.8719	-27.6084	154.596	69.7895	-133.593	6.5807	-3.01525	-10.0233	0.0462048	0.000533964	0.662642	-0.326806	0.697539	0.187742	-0.664417	1.39676	0.379335	10.5755	37.7102	49.5363	3.18E-15	6.36E-15	4.77E-15	-71.5346	30.0707	24.9596	-15.0174	18.9403	-61.7816	22.3399	4.43402	-1.81287	3.18E-15	6.36E-15	4.77E-15	85.1533	30.2236	-42.9576	-8.61332	-2.20295	60.8184	-19.6483	7.29285	-9.83827	-6.54797	-33.2954	2.68234	169.554	72.7141	163.027	-16.1043	-12.6449	-19.2536	6.36E-15	3.50E-14	-6.36E-15
-22.567	56.5051	36.442	19.43	53.7563	155.342	-55.3147	-19.9846	-27.5119	154.533	69.78	-133.571	6.5139	-2.9362	-10.0094	0.0462048	0.000533964	0.662642	-0.326914	0.724238	0.200327	-0.656447	1.4501	0.404613	10.5953	37.687	49.4754	1.59E-15	-6.36E-15	1.59E-15	-71.6289	30.2577	24.9042	-14.8983	18.7846	-61.8709	22.4128	4.37098	-1.84397	1.59E-15	-6.36E-15	1.59E-15	85.1671	30.2614	-42.9826	-8.51758	-2.32775	60.9052	-19.7706	7.14608	-9.7242	-6.6055	-33.3127	2.58614	169.647	72.761	162.938	-16.1063	-12.6787	-19.1588	1.27E-14	3.34E-14	0.00E+00
-22.58	56.505	36.434	19.3724	53.7012	155.383	-55.2989	-20.0922	-27.5493	154.591	69.7785	-133.681	6.53842	-2.96565	-10.1587	0.0462048	0.000533964	0.662642	-0.327231	0.758046	0.214875	-0.657399	1.51763	0.433914	10.6234	37.6012	49.4323	3.18E-15	3.18E-15	1.59E-15	-71.6494	30.4491	24.7809	-14.7731	18.6762	-61.9971	22.4764	4.31421	-1.8694	3.18E-15	3.18E-15	1.59E-15	85.1618	30.3164	-42.9954	-8.42883	-2.4896	61.0376	-19.8601	7.02558	-9.61162	-6.65253	-33.3888	2.50098	169.756	72.7788	162.819	-16.1102	-12.7127	-19.04	1.27E-14	3.02E-14	9.54E-15
-22.588	56.4928	36.437	19.4033	53.6472	155.348	-55.2667	-20.1726	-27.6525	154.786	69.7978	-133.94	6.48625	-2.93249	-10.1894	0.0462048	0.000533964	0.662642	-0.3125	0.813299	0.240624	-0.628519	1.62805	0.485534	10.6686	37.4584	49.3796	3.18E-15	6.36E-15	1.59E-15	-71.6219	30.6946	24.6044	-14.6139	18.6088	-62.1829	22.5525	4.24323	-1.85136	3.18E-15	6.36E-15	1.59E-15	85.1815	30.3878	-43.0397	-8.3821	-2.70037	61.223	-19.9212	6.95601	-9.52994	-6.61165	-33.4571	2.47245	169.823	72.7749	162.758	-16.1099	-12.6929	-19.068	1.27E-14	3.50E-14	0.00E+00
